<?xml version="1.0" encoding="utf-8"?>
<!-- Generator: Adobe Illustrator 22.1.0, SVG Export Plug-In . SVG Version: 6.00 Build 0)  -->
<svg version="1.1" id="Layer_1" xmlns="http://www.w3.org/2000/svg" xmlns:xlink="http://www.w3.org/1999/xlink" x="0px" y="0px"
	 viewBox="0 0 320 220" style="enable-background:new 0 0 320 220;" xml:space="preserve">
<style type="text/css">
	.st0{fill:#A48D29;}
	.st1{fill:#EADE98;}
</style>
<title>Artboard 1</title>
<path class="st0" d="M237.4,91.7c0.2,5.5,4.6,9.9,10.1,10.1C247.3,96.3,242.9,91.9,237.4,91.7z"/>
<path class="st0" d="M262.9,87.3c0,7.5-5.7,13.8-13.2,14.5c-0.2,3.9,1.2,7.8,3.9,10.6l-0.3,0.3c-6-5.3-6.6-14.5-1.3-20.5
	C254.8,89.1,258.7,87.3,262.9,87.3z"/>
<path class="st1" d="M289,121.9c0,0.5-0.4,1-1,1l-20.8,2.2l-1.2,12.2h-0.6v-12c-4.7,0-8.5-3.8-8.5-8.5c0,0,0,0,0,0v-7.1
	c0-0.6-0.4-1-0.9-1.1c0,0-0.1,0-0.1,0h-2.8l5.1-5.1c1.7-1.7,4.3-1.7,6,0c0.2,0.2,0.4,0.4,0.5,0.6C270.3,113,279,119.2,289,121.9
	L289,121.9z M261.2,105.6c-0.6,0-1.1,0.5-1.1,1s0.5,1.1,1,1.1c0.6,0,1.1-0.5,1.1-1c0,0,0,0,0,0c0-0.6-0.4-1-0.9-1.1
	C261.3,105.6,261.2,105.6,261.2,105.6L261.2,105.6z"/>
<path class="st0" d="M0,47.2h13.1c1,0,1.9,0.1,2.9,0.3c1.1,0.2,2.1,0.6,3,1.2c1,0.7,1.7,1.6,2.3,2.6c0.7,1.4,1,2.9,0.9,4.5
	c0.1,2.4-0.8,4.7-2.5,6.3c-1.7,1.5-4.1,2.2-7.2,2.2H1.9V78H0V47.2z M1.9,62.6h10.9c1.2,0,2.4-0.2,3.5-0.6c0.9-0.4,1.7-0.9,2.3-1.6
	c0.6-0.6,1-1.4,1.3-2.2c0.3-0.8,0.4-1.6,0.4-2.4c0-0.7-0.1-1.3-0.3-2c-0.2-0.8-0.5-1.6-1-2.3c-0.6-0.8-1.3-1.4-2.2-1.9
	c-1.2-0.6-2.5-0.9-3.8-0.8H1.9V62.6z"/>
<path class="st0" d="M24,67.1v0.3c0,1.3,0.2,2.5,0.5,3.7c0.3,1.1,0.8,2.2,1.5,3.1c0.7,0.9,1.6,1.6,2.6,2.1c1.1,0.5,2.3,0.8,3.6,0.8
	c1.9,0.1,3.8-0.5,5.3-1.8c1.4-1.3,2.3-3,2.7-4.9h1.7c-0.3,2.3-1.5,4.4-3.2,6c-1.8,1.4-4.1,2.2-6.5,2.1c-1.5,0-3-0.3-4.3-0.9
	c-1.2-0.6-2.2-1.4-3.1-2.4c-0.8-1.1-1.4-2.3-1.8-3.7c-0.8-2.9-0.8-6.1,0-9c0.4-1.4,1-2.6,1.9-3.8c0.8-1.1,1.9-2,3.1-2.6
	c1.4-0.7,2.9-1,4.4-1c1.4,0,2.8,0.3,4.1,0.9c1.2,0.6,2.2,1.4,3,2.4c0.8,1,1.5,2.2,1.9,3.5c0.4,1.4,0.6,2.8,0.6,4.2
	c0,0.2,0,0.3,0,0.5c0,0.2,0,0.3,0,0.4L24,67.1z M40.3,65.7c-0.1-1.2-0.3-2.3-0.6-3.4c-0.3-1-0.9-2-1.5-2.9c-0.7-0.8-1.5-1.5-2.5-2
	c-1-0.5-2.2-0.8-3.3-0.7c-2.3-0.1-4.6,1-6.1,2.8c-0.7,0.8-1.3,1.8-1.6,2.9c-0.4,1.1-0.6,2.2-0.7,3.4L40.3,65.7z"/>
<path class="st0" d="M45.9,55.8h1.6v4.8h0.1c0.3-0.8,0.7-1.6,1.2-2.2c0.5-0.6,1.2-1.2,1.9-1.7c0.7-0.5,1.5-0.8,2.3-1
	c0.8-0.2,1.7-0.3,2.5-0.3c1.1,0,2.2,0.1,3.3,0.5c0.8,0.3,1.6,0.7,2.2,1.2c0.6,0.5,1,1.1,1.4,1.8c0.3,0.6,0.6,1.3,0.7,2
	c0.1,0.6,0.2,1.3,0.3,1.9c0,0.6,0,1.2,0,1.6V78h-1.6V64c0-0.7-0.1-1.4-0.1-2.1c-0.1-0.8-0.3-1.7-0.8-2.4c-0.5-0.8-1.1-1.5-1.9-2
	c-1.1-0.6-2.3-0.9-3.5-0.8c-1.2,0-2.3,0.2-3.4,0.7c-1,0.4-1.8,1.1-2.5,1.9c-0.7,0.9-1.3,1.9-1.6,2.9c-0.4,1.2-0.5,2.5-0.5,3.7v12
	h-1.6V55.8z"/>
<path class="st0" d="M68.7,51.6v-4.4h1.6v4.4H68.7z M68.7,78V55.8h1.6V78L68.7,78z"/>
<path class="st0" d="M75.6,55.8h1.6v4.8h0.1c0.3-0.8,0.7-1.6,1.2-2.2c0.5-0.6,1.2-1.2,1.9-1.7c0.7-0.5,1.5-0.8,2.3-1
	c0.8-0.2,1.7-0.3,2.6-0.3c1.1,0,2.2,0.1,3.3,0.5c0.8,0.3,1.6,0.7,2.2,1.2c0.6,0.5,1,1.1,1.4,1.8c0.3,0.6,0.6,1.3,0.7,2
	c0.1,0.6,0.2,1.3,0.3,1.9c0,0.6,0,1.2,0,1.6V78h-1.6V64c0-0.5,0-1.2-0.1-2.1c-0.1-0.8-0.3-1.7-0.8-2.4c-0.5-0.8-1.1-1.5-1.9-2
	c-1.1-0.6-2.3-0.9-3.5-0.8c-1.2,0-2.3,0.2-3.4,0.7c-1,0.4-1.8,1.1-2.5,1.9c-0.7,0.9-1.3,1.9-1.6,2.9c-0.4,1.2-0.6,2.5-0.5,3.7v12
	h-1.6V55.8z"/>
<path class="st0" d="M98.8,70.6c0,1,0.3,1.9,0.7,2.8c0.8,1.6,2.2,2.8,3.8,3.3c0.9,0.3,1.8,0.4,2.8,0.4c0.8,0,1.6-0.1,2.3-0.2
	c0.8-0.1,1.6-0.4,2.3-0.7c0.7-0.3,1.3-0.8,1.8-1.4c0.5-0.7,0.7-1.5,0.7-2.4c0.1-1.1-0.3-2.1-1.1-2.8c-0.8-0.7-1.8-1.2-2.8-1.5
	c-1.2-0.4-2.4-0.6-3.7-0.8c-1.3-0.2-2.5-0.5-3.7-1c-1.1-0.4-2.1-1-2.9-1.8c-1.3-1.8-1.5-4.3-0.4-6.2c0.5-0.7,1.1-1.3,1.9-1.8
	c0.8-0.4,1.7-0.8,2.6-0.9c0.9-0.2,1.9-0.3,2.8-0.3c1.1,0,2.2,0.1,3.2,0.4c1,0.2,1.8,0.7,2.6,1.2c0.7,0.6,1.3,1.3,1.7,2.2
	c0.4,1,0.6,2.1,0.6,3.2h-1.6c0-0.9-0.1-1.8-0.5-2.6c-0.3-0.7-0.8-1.3-1.4-1.8c-0.6-0.5-1.3-0.8-2.1-1c-0.8-0.2-1.7-0.3-2.6-0.3
	c-0.8,0-1.5,0.1-2.3,0.2c-0.7,0.1-1.4,0.4-2,0.7c-0.6,0.3-1.1,0.8-1.5,1.3c-0.8,1.3-0.8,2.9,0.1,4.2c0.5,0.6,1,1,1.7,1.3
	c0.8,0.4,1.6,0.6,2.4,0.8l2.7,0.6c1.1,0.2,2.1,0.4,3.1,0.7c0.9,0.2,1.7,0.6,2.5,1.1c0.7,0.5,1.3,1.1,1.7,1.8
	c0.4,0.9,0.6,1.9,0.6,2.8c0,1.1-0.2,2.1-0.8,3c-0.5,0.8-1.3,1.4-2.1,1.9c-0.9,0.5-1.8,0.8-2.8,1c-1,0.2-2,0.3-3,0.3
	c-1.2,0-2.4-0.2-3.5-0.5c-1-0.3-2-0.8-2.8-1.5C99,75.8,98.4,75,97.9,74c-0.5-1.1-0.7-2.2-0.7-3.4L98.8,70.6z"/>
<path class="st0" d="M136.4,78h-1.6v-4.8h-0.1c-0.3,0.8-0.7,1.6-1.2,2.2c-1.1,1.3-2.5,2.3-4.2,2.7c-0.8,0.2-1.7,0.3-2.6,0.4
	c-1.1,0-2.2-0.1-3.3-0.5c-0.8-0.3-1.6-0.7-2.2-1.2c-0.6-0.5-1-1.1-1.4-1.8c-0.3-0.6-0.6-1.3-0.7-2c-0.1-0.6-0.2-1.3-0.3-1.9
	c0-0.6,0-1.2,0-1.6V55.8h1.6v14c0,0.7,0,1.4,0.1,2.1c0.1,0.8,0.4,1.6,0.8,2.4c0.4,0.8,1.1,1.5,1.9,2c1.1,0.6,2.3,0.9,3.5,0.8
	c1.2,0,2.3-0.2,3.3-0.7c1-0.4,1.8-1.1,2.5-1.9c0.7-0.9,1.3-1.9,1.6-2.9c0.4-1.2,0.6-2.5,0.5-3.7v-12h1.6L136.4,78z"/>
<path class="st0" d="M143.2,47.2V78h-1.6V47.2H143.2z"/>
<path class="st0" d="M163.2,73.6L163.2,73.6c-0.4,0.7-0.7,1.3-1.2,1.9c-0.5,0.6-1.1,1.1-1.8,1.6c-0.7,0.5-1.5,0.8-2.4,1.1
	c-1,0.3-1.9,0.4-2.9,0.4c-2,0.1-3.9-0.4-5.5-1.5c-1.4-1.2-2.1-2.9-2-4.7c0-1.1,0.2-2.2,0.8-3.2c0.5-0.8,1.2-1.5,2-2
	c0.8-0.5,1.7-0.8,2.6-1c0.9-0.2,1.9-0.3,2.8-0.4l2.6-0.2c0.9-0.1,1.9-0.2,2.8-0.4c0.6-0.1,1.1-0.4,1.5-0.8c0.4-0.3,0.6-0.8,0.6-1.3
	c0.1-0.6,0.1-1.3,0.1-1.9c0-0.6-0.1-1.2-0.3-1.7c-0.3-0.5-0.6-1-1.1-1.4c-0.6-0.5-1.2-0.8-1.9-1c-0.9-0.3-1.9-0.4-2.9-0.3
	c-1.7-0.1-3.4,0.4-4.8,1.5c-1.3,1.1-2,2.7-2,4.4h-1.6c0-2.1,0.8-4.1,2.4-5.5c1.8-1.3,4-2,6.2-1.8c2.7,0,4.6,0.5,5.9,1.6
	c1.2,1,1.9,2.5,1.8,4.1v12.9c0,0.3,0,0.6,0,1c0,0.3,0.1,0.6,0.1,0.9c0.1,0.2,0.2,0.5,0.4,0.6c0.3,0.2,0.6,0.3,0.9,0.2
	c0.4,0,0.8-0.1,1.2-0.1v1.4c-0.4,0.1-0.9,0.2-1.3,0.2c-0.5,0-1.1-0.1-1.6-0.3c-0.4-0.1-0.7-0.4-0.9-0.7c-0.2-0.3-0.3-0.6-0.4-1
	c-0.1-0.4-0.1-0.9-0.1-1.3L163.2,73.6z M163.2,65.4c-0.5,0.5-1.1,0.9-1.8,1c-0.9,0.2-1.8,0.3-2.7,0.4l-2.8,0.3
	c-0.8,0.1-1.6,0.2-2.4,0.4c-0.8,0.1-1.5,0.4-2.2,0.8c-0.6,0.4-1.2,0.9-1.6,1.5c-0.4,0.8-0.6,1.6-0.6,2.5c-0.1,1.4,0.5,2.8,1.6,3.7
	c1.3,0.9,2.8,1.3,4.3,1.2c1.5,0.1,3.1-0.3,4.4-1c1-0.6,1.9-1.4,2.5-2.3c0.5-0.8,0.9-1.6,1.1-2.6c0.1-0.5,0.2-1.1,0.2-1.7V65.4z"/>
<polygon class="st0" points="37.5,145.9 37.5,137.5 0,137.5 0,145.9 13.8,145.9 13.8,172.9 23.8,172.9 23.8,145.9 "/>
<path class="st0" d="M78.2,169c-0.2-1.1-0.6-2.2-1.1-3.2c-0.5-1-1.2-1.8-2-2.5c-0.9-0.8-2-1.3-3.1-1.6v-0.1c2.3-0.8,4.3-2.4,5.5-4.5
	c1.2-2.1,1.8-4.6,1.7-7c0-1.7-0.3-3.3-0.9-4.9c-0.6-1.5-1.5-2.9-2.7-4c-1.2-1.2-2.7-2.1-4.2-2.7c-1.8-0.7-3.7-1-5.6-1H41.2v35.4
	h10.1v-7.5h10.1c2.5,0,4.3,0.6,5.4,1.7c1.3,1.5,2.1,3.3,2.2,5.3c0,0.2,0,0.4,0.1,0.6h9.7v-0.4C78.7,171.3,78.5,170.1,78.2,169z
	 M67.5,156.6c-1.5,1.1-3.3,1.7-5.2,1.5h-11v-12.9h11c1.9-0.1,3.7,0.4,5.2,1.5c1.2,1,1.7,2.6,1.7,4.8S68.6,155.6,67.5,156.6z"/>
<rect x="85.9" y="137.5" class="st0" width="10.1" height="35.4"/>
<polygon class="st0" points="138.3,137.5 128.2,168.9 128.1,168.9 117.3,137.5 103.2,137.5 103.2,172.9 112.6,172.9 112.6,151.1 
	112.7,151.1 120.3,172.9 135.3,172.9 142.9,150.8 143.1,150.8 143.1,172.9 152.5,172.9 152.5,137.5 "/>
<polygon class="st0" points="194.9,137.5 184.7,168.9 184.6,168.9 173.9,137.5 159.7,137.5 159.7,172.9 169.1,172.9 169.1,151.1 
	169.3,151.1 176.9,172.9 191.9,172.9 199.5,150.8 199.6,150.8 199.6,172.9 209,172.9 209,137.5 "/>
<rect x="216.3" y="137.5" class="st0" width="10.1" height="35.4"/>
<polygon class="st0" points="262.8,137.5 262.8,168.2 262.7,168.2 243.6,137.5 233.6,137.5 233.6,172.9 243,172.9 243,152.6 
	243.1,152.6 255.7,172.9 272.2,172.9 272.2,137.5 "/>
<path class="st0" d="M300.8,158.5v7.5h10.1c-0.1,2.5-1.1,4.9-2.7,6.9H320v-14.4H300.8z"/>
<path class="st0" d="M290.4,171.1c-1-1.5-1.7-3.2-2.1-4.9c-0.4-1.8-0.7-3.7-0.7-5.6c0-2,0.2-3.9,0.7-5.8c0.4-1.8,1.1-3.5,2.1-5
	c1-1.5,2.3-2.7,3.9-3.5c1.8-0.9,3.8-1.4,5.8-1.3c2.2-0.1,4.4,0.6,6.2,1.9c1.8,1.4,3,3.5,3.5,5.8h9.6c-0.2-2.4-0.9-4.8-2.1-6.9
	c-1.1-2-2.6-3.7-4.4-5.1c-1.8-1.4-3.8-2.4-6-3.1c-2.2-0.7-4.5-1.1-6.8-1.1c-3.2-0.1-6.5,0.6-9.5,1.9c-2.7,1.2-5.1,2.9-7.1,5.1
	c-2,2.2-3.5,4.8-4.4,7.6c-1,3.1-1.6,6.3-1.5,9.5c0,3.2,0.5,6.3,1.5,9.3c0.4,1,0.8,2,1.3,3h11.6C291.3,172.3,290.8,171.7,290.4,171.1
	z"/>
<polygon class="st1" points="10.1,126.1 10.1,106.4 28.6,106.4 28.6,126.1 38.7,126.1 38.7,90.8 28.6,90.8 28.6,97.9 10.1,97.9 
	10.1,90.8 0,90.8 0,126.1 "/>
<polygon class="st1" points="80.7,126.1 80.7,117.7 56,117.7 56,106.4 78.2,106.4 78.2,98.6 56,98.6 56,90.8 45.9,90.8 45.9,126.1 
	"/>
<path class="st1" d="M105.6,126.1c3.1,0.1,6.2-0.5,9.1-1.8c2.5-1.1,4.7-2.8,6.5-4.8c1.8-2.1,3.1-4.6,3.9-7.3c0.9-3,1.3-6.1,1.3-9.2
	c0.1-3.4-0.5-6.7-1.6-9.9c-0.3-0.8-0.6-1.6-1-2.3H111c0.9,0.6,1.7,1.3,2.4,2.2c1.1,1.4,1.8,3,2.2,4.8c0.5,2,0.7,4.1,0.7,6.2
	c0,2.2-0.3,4.3-1,6.4c-0.5,1.6-1.4,3-2.6,4.3c-1,1.1-2.3,1.9-3.7,2.3c-1.4,0.5-2.8,0.7-4.2,0.7h-9V90.8h-10v35.4H105.6z"/>
<path class="st1" d="M161.9,95.4h9.6c-0.1-1.6-0.5-3.2-1.1-4.7h-10.8C160.8,92.1,161.6,93.7,161.9,95.4z"/>
<path class="st1" d="M129.8,103.4c0,3.2,0.5,6.3,1.5,9.3c1,2.8,2.5,5.3,4.4,7.5c2,2.2,4.4,3.9,7.1,5c3,1.2,6.2,1.9,9.5,1.8
	c2.3,0,4.5-0.5,6.6-1.4c2.4-1.1,4.5-2.7,6-4.9l1,5.2h6.4v-24.7H153v7.5h10.1c-0.1,2.8-1.2,5.4-3.2,7.3c-1.8,1.7-4.4,2.5-7.7,2.5
	c-2,0.1-4-0.4-5.8-1.3c-1.5-0.8-2.9-2-3.9-3.5c-1-1.5-1.7-3.2-2.1-4.9c-0.5-1.8-0.7-3.7-0.7-5.6c0-2,0.2-3.9,0.7-5.8
	c0.4-1.8,1.1-3.5,2.1-5c0.4-0.7,1-1.3,1.5-1.8h-11.5c-0.5,1-1,2.1-1.4,3.2C130.2,97,129.7,100.2,129.8,103.4z"/>
<polygon class="st1" points="213.6,126.1 213.6,117.7 188.9,117.7 188.9,106.4 211.1,106.4 211.1,98.6 188.9,98.6 188.9,90.8 
	178.8,90.8 178.8,126.1 "/>
</svg>
