<?xml version="1.0" standalone="no"?>
<!DOCTYPE svg PUBLIC "-//W3C//DTD SVG 20010904//EN"
 "http://www.w3.org/TR/2001/REC-SVG-20010904/DTD/svg10.dtd">
<svg version="1.0" xmlns="http://www.w3.org/2000/svg"
 width="700.000000pt" height="700.000000pt" viewBox="0 0 700.000000 700.000000"
 preserveAspectRatio="xMidYMid meet">
<metadata>
Created by potrace 1.11, written by Peter Selinger 2001-2013
</metadata>
<g transform="translate(0.000000,700.000000) scale(0.100000,-0.100000)"
fill="#000000" stroke="none">
<path d="M3280 6892 c-91 -8 -285 -45 -375 -72 -567 -170 -1015 -569 -1257
-1120 -60 -135 -126 -376 -145 -530 -10 -84 -10 -384 0 -475 48 -434 262 -866
580 -1177 65 -62 70 -65 88 -50 21 18 24 12 -56 107 -199 237 -363 577 -410
850 -3 17 -8 37 -10 45 -2 8 -7 38 -11 65 -3 28 -8 59 -11 70 -8 35 -12 310
-5 322 4 6 34 13 67 17 50 6 183 30 272 51 13 3 69 22 125 41 648 227 1134
771 1282 1435 30 137 35 171 43 316 l6 112 -74 -2 c-41 -1 -90 -3 -109 -5z"/>
<path d="M6 6241 c3 -40 7 -82 10 -94 2 -12 7 -38 10 -57 11 -63 55 -204 89
-283 149 -347 436 -627 788 -768 54 -22 203 -66 247 -73 55 -9 108 -16 164
-22 l58 -6 -6 69 c-4 37 -9 84 -12 103 -5 44 -42 198 -54 225 -4 11 -18 47
-31 80 -121 314 -397 609 -709 756 -104 49 -120 56 -145 62 -11 3 -51 15 -89
26 -38 11 -88 23 -110 27 -22 3 -43 7 -46 9 -3 2 -42 6 -88 10 l-82 7 6 -71z"/>
<path d="M3093 4830 c-74 -17 -155 -55 -212 -98 -19 -14 -196 -187 -393 -383
l-357 -358 214 -3 c198 -3 216 -4 242 -24 63 -46 61 -34 66 -670 4 -552 5
-583 25 -666 100 -402 380 -707 768 -837 49 -17 102 -32 118 -35 81 -15 159
-24 217 -25 l26 -1 1 -787 c0 -434 1 -800 1 -815 1 -26 4 -28 41 -28 38 0 40
1 41 33 0 17 2 40 4 50 2 9 6 52 10 95 3 42 8 97 11 122 10 96 13 137 19 200
3 36 8 85 11 110 2 25 7 69 9 98 7 85 15 174 20 222 5 49 11 108 20 210 3 36
7 81 10 100 2 19 7 73 11 120 3 47 7 92 9 100 5 27 19 185 17 193 -1 4 10 7
25 8 16 0 35 2 43 4 14 2 92 11 200 21 25 2 60 6 79 9 18 3 63 8 100 11 36 3
77 7 91 9 14 2 57 7 95 10 39 4 81 8 95 10 14 2 54 6 90 10 76 7 130 13 185
20 22 3 65 7 95 10 30 3 75 7 100 10 25 3 65 7 90 9 25 3 65 7 90 10 25 3 72
8 105 11 75 7 140 14 185 20 19 3 58 7 85 10 28 2 73 7 100 9 28 3 75 8 105
11 30 3 71 8 90 10 19 3 62 8 95 11 33 2 78 7 100 10 22 3 65 7 95 9 30 3 71
7 90 10 19 2 60 7 90 10 30 3 93 10 140 15 47 5 108 12 137 15 28 3 62 9 76
14 21 8 75 63 78 79 9 55 7 62 -19 68 -115 24 -716 238 -746 265 -6 5 -16 9
-23 9 -16 0 -336 155 -438 212 -111 62 -237 135 -280 161 -31 19 -305 203
-355 238 -129 91 -366 285 -510 419 -205 190 -412 408 -545 575 -22 28 -42 52
-45 55 -3 3 -21 25 -40 50 -19 25 -38 50 -43 55 -4 6 -24 33 -44 60 -20 28
-49 66 -63 85 -15 19 -55 78 -90 130 -75 113 -126 169 -200 219 -76 51 -116
67 -206 86 -92 19 -155 18 -251 -5z m227 -455 c117 -112 -3 -294 -154 -231
-101 42 -108 187 -11 248 45 29 126 21 165 -17z"/>
</g>
</svg>
