<?xml version="1.0" standalone="no"?>
<!DOCTYPE svg PUBLIC "-//W3C//DTD SVG 20010904//EN"
 "http://www.w3.org/TR/2001/REC-SVG-20010904/DTD/svg10.dtd">
<svg version="1.0" xmlns="http://www.w3.org/2000/svg"
 width="700.000000pt" height="700.000000pt" viewBox="0 0 700.000000 700.000000"
 preserveAspectRatio="xMidYMid meet">
<metadata>
Created by potrace 1.11, written by Peter Selinger 2001-2013
</metadata>
<g transform="translate(0.000000,700.000000) scale(0.100000,-0.100000)"
fill="#000000" stroke="none">
<path d="M0 3500 l0 -3500 3500 0 3500 0 0 3500 0 3500 -3500 0 -3500 0 0
-3500z m3466 2518 c-29 -378 -182 -712 -445 -973 -218 -217 -473 -353 -778
-414 -55 -12 -113 -21 -127 -21 -19 0 -27 -6 -32 -26 -10 -38 13 -284 35 -385
53 -237 165 -465 314 -642 44 -51 53 -68 43 -76 -10 -8 -31 8 -88 67 -234 242
-376 539 -418 876 -17 129 -7 350 20 478 114 539 501 970 1021 1136 121 39
285 67 403 71 l59 1 -7 -92z m-2474 -384 c266 -54 524 -227 678 -455 95 -139
167 -336 185 -502 l7 -69 -29 5 c-15 3 -55 9 -88 12 -138 16 -300 78 -439 168
-278 182 -450 465 -491 810 l-7 59 59 -7 c32 -4 88 -13 125 -21z m2480 -1141
c87 -41 147 -97 221 -208 536 -800 1350 -1414 2267 -1711 113 -36 211 -68 218
-70 31 -9 -13 -95 -56 -108 -14 -5 -478 -56 -1237 -136 -49 -5 -261 -28 -470
-50 -209 -22 -406 -43 -437 -47 -55 -6 -58 -7 -63 -37 -6 -39 -115 -1194 -115
-1224 0 -18 -6 -22 -35 -22 l-35 0 0 630 0 630 -54 0 c-225 0 -497 146 -656
352 -83 107 -151 280 -170 429 -5 46 -10 264 -10 485 l0 402 -29 31 -29 31
-166 0 c-91 0 -166 2 -166 5 0 14 579 575 618 598 78 46 127 57 237 54 88 -2
108 -6 167 -34z"/>
<path d="M3214 4166 c-40 -40 -45 -83 -15 -132 57 -94 201 -48 201 65 0 51
-54 101 -110 101 -34 0 -48 -6 -76 -34z"/>
</g>
</svg>
